<?xml version="1.0" encoding="utf-8"?>
<!-- Generator: Adobe Illustrator 23.0.3, SVG Export Plug-In . SVG Version: 6.00 Build 0)  -->
<svg version="1.1" id="Layer_1" xmlns="http://www.w3.org/2000/svg" xmlns:xlink="http://www.w3.org/1999/xlink" x="0px" y="0px"
	 viewBox="0 0 512 512" style="enable-background:new 0 0 512 512;" xml:space="preserve">
<style type="text/css">
	.st0{fill:#05386B;}
</style>
<g>
	<g>
		<g>
			<path class="st0" d="M231.2,161.1h11.9c4.7,0,8.5-3.8,8.5-8.5c0-4.7-3.8-8.5-8.5-8.5h-11.9c-4.7,0-8.5,3.8-8.5,8.5
				C222.7,157.3,226.5,161.1,231.2,161.1z"/>
			<path class="st0" d="M453.1,0H58.9c-4.7,0-8.5,3.8-8.5,8.5v495c0,4.7,3.8,8.5,8.5,8.5h394.2c4.7,0,8.5-3.8,8.5-8.5V8.5
				C461.6,3.8,457.8,0,453.1,0z M432.6,17l-20.9,20.9H100.3L79.4,17H432.6z M334.6,253.8c-11.8,0-21.4-9.6-21.4-21.4v-9.6
				c22.2,0.5,33.7,5.2,45.8,10.2c12.3,5,25.1,10.2,47.8,11.3v213h-49.2c9.5-9.9,15.3-23.3,15.3-38.1v-127
				C372.9,271,355.7,253.8,334.6,253.8z M245.3,84.8c0.1,0,0.2,0,0.3,0c27.9,0,50.6,22.7,50.6,50.6v97c0,14.9,8.5,27.8,20.9,34.1
				l-35,31.4V134.5C282.1,111.2,266.6,91.4,245.3,84.8z M209.2,183.1c4.7,0,8.5-3.8,8.5-8.5v-15.9c0-9.9-8.1-18-18-18h-4.6v-5.4
				c0-1.7,0.1-3.3,0.2-4.9c2-17.4,16.8-31,34.8-31c19.3,0,35,15.7,35,35v40.1h0c0,19.3-15.7,35-35,35s-35-15.7-35-35v-16.9h4.6
				c0.6,0,1,0.5,1,1v15.9C200.7,179.3,204.5,183.1,209.2,183.1z M211.6,223.2v7.8c0,15.3-6,29.7-16.5,40.4V213
				C199.8,217.4,205.4,220.9,211.6,223.2z M228.5,231v-4.4c0.5,0,1,0,1.6,0c13.5,0,25.8-5.2,35-13.6v100l-5.5,4.9
				c-22.1-1.9-42.1-14.9-52.7-34.3C220.6,269.7,228.5,250.9,228.5,231z M313.1,153.5v-18.1c0-37.2-30.3-67.5-67.5-67.5
				c-35,0-64.2,26.8-67.5,60.9c-0.2,1.9,0,24.7,0,24.7h-72.8V54.9h301.4v98.6H313.1z M406.7,170.4v56.8c-19.3-1-30.1-5.4-41.4-10
				c-13.1-5.4-26.7-10.9-52.2-11.4v-35.4L406.7,170.4L406.7,170.4z M178.1,170.4v4.2v72.2c-10-1.9-17.3-4.9-25.1-8.1
				c-12.3-5-25.1-10.2-47.8-11.3v-57.1L178.1,170.4L178.1,170.4z M146.7,254.5c9,3.7,18.2,7.4,31.5,9.6v21.5
				c-14.7,14-23.3,33.6-23.3,54.2v72.2c0,17.8,7.5,33.9,19.6,45.2h-69.1V244.5C124.6,245.5,135.4,249.8,146.7,254.5z M171.8,411.9
				v-8.2c11.3,12,27.4,19.6,45.2,19.6h6.7l-4.5,33.9H217C192.1,457.1,171.8,436.9,171.8,411.9z M175.8,379.6
				c7.8,5.4,17.3,8.6,27.5,8.6h20.2l-11.1,17.8C196.1,404.4,182.3,394,175.8,379.6z M200.2,371.1c-15.9-1.5-28.4-15-28.4-31.4
				c0-17.7,8.1-34.3,21.9-45.3c11.2,18.6,29.2,32.1,50,37.7L200.2,371.1z M337.5,270.9c10.4,1.5,18.4,10.4,18.4,21.2v26l-79.7,65.6
				c-10.7-7.9-23.8-12.4-37.5-12.4h-13.3L337.5,270.9z M243.3,388.5c12.7,1.3,24.4,7.9,32.1,17.8h-43.2L243.3,388.5z M240.8,423.3
				h72.8c4.7,0,8.5-3.8,8.5-8.5s-3.8-8.5-8.5-8.5h-18.2c-1.9-3.8-4.2-7.4-6.8-10.7l67.4-55.5v79c0,21-17.1,38.1-38.1,38.1h-81.6
				L240.8,423.3z M67.4,28.9l20.9,20.9v412.2l-20.9,20.9V28.9z M79.4,495l20.9-20.9h311.4l20.9,20.9H79.4z M444.6,483.1l-20.9-20.9
				V49.9l20.9-20.9V483.1z"/>
		</g>
	</g>
</g>
</svg>
